# AST/ASF file generated using VICON BodyLanguage
# -----------------------------------------------
:version 1.10
:name VICON
:units
  mass 1.0
  length 0.45
  angle deg
:documentation
   .ast/.asf automatically generated from VICON data using
   VICON BodyBuilder and BodyLanguage model FoxedUp or BRILLIANT.MOD
:root
   order TX TY TZ RX RY RZ
   axis XYZ
   position 0 0 0  
   orientation 0 0 0 
:bonedata
  begin
     id 1 
     name lhipjoint
     direction 0.440178 -0.822639 0.359871 
     length 2.53113 
     axis 0 0 0  XYZ
  end
  begin
     id 2 
     name lfemur
     direction 0.34202 -0.939693 0  
     length 7.88132  
     axis 0 0 20  XYZ
    dof rx ry rz
    limits (-160.0 20.0)
           (-70.0 70.0)
           (-60.0 70.0)
  end
  begin
     id 3 
     name ltibia
     direction 0.34202 -0.939693 0   
     length 8.43783   
     axis 0 0 20   XYZ
    dof rx
    limits (-10.0 170.0)
  end
  begin
     id 4 
     name lfoot
     direction 0.0886351 -0.243523 0.965837   
     length 2.63414   
     axis -90 7.62852e-016 20   XYZ
    dof rx rz
    limits (-45.0 90.0)
           (-70.0 20.0)
  end
  begin
     id 5 
     name ltoes
     direction 1.53703e-011 -4.21717e-011 1   
     length 1.31427   
     axis -90 7.62852e-016 20   XYZ
    dof rx
    limits (-90.0 20.0)
  end
  begin
     id 6 
     name rhipjoint
     direction -0.399779 -0.839773 0.367367   
     length 2.47948  
     axis 0 0 0  XYZ 
  end
  begin
     id 7 
     name rfemur
     direction -0.34202 -0.939693 0   
     length 7.74806   
     axis 0 0 -20   XYZ
    dof rx ry rz
    limits (-160.0 20.0)
           (-70.0 70.0)
           (-70.0 60.0)
  end
  begin
     id 8 
     name rtibia
     direction -0.34202 -0.939693 0   
     length 8.74432   
     axis 0 0 -20   XYZ
    dof rx
    limits (-10.0 170.0)
 end
 begin
     id 9 
     name rfoot
     direction -0.108514 -0.298139 0.948334   
     length 2.66102  
     axis -90 -7.62852e-016 -20   XYZ
    dof rx rz
    limits (-45.0 90.0)
           (-20.0 70.0)
  end
  begin
     id 10 
     name rtoes
     direction -1.53392e-011 -4.22077e-011 1   
     length 1.31983   
     axis -90 -7.62852e-016 -20   XYZ
    dof rx
    limits (-90.0 20.0)
  end
  begin
     id 11 
     name lowerback
     direction 0.0113257 0.999866 0.0118602   
     length 2.58694   
     axis 0 0 0   XYZ
    dof rx ry rz
    limits (-20.0 45.0)
           (-30.0 30.0)
           (-30.0 30.0)
  end
  begin
     id 12 
     name upperback
     direction -0.0164747 0.995193 -0.0965375   
     length 2.52368   
     axis 0 0 0   XYZ
    dof rx ry rz
    limits (-20.0 45.0)
           (-30.0 30.0)
           (-30.0 30.0)
  end
  begin
     id 13 
     name thorax
     direction -0.0194301 0.99433 -0.104552   
     length 2.56099   
     axis 0 0 0   XYZ
    dof rx ry rz
    limits (-20.0 45.0)
           (-30.0 30.0)
           (-30.0 30.0)
  end
  begin
     id 14 
     name lowerneck
     direction 0.0148543 0.995587 -0.092657   
     length 1.71582   
     axis 0 0 0   XYZ
    dof rx ry rz
    limits (-20.0 45.0)
           (-30.0 30.0)
           (-30.0 30.0)
  end
  begin
     id 15 
     name upperneck
     direction -0.0135467 0.993656 -0.111639   
     length 1.68937   
     axis 0 0 0   XYZ
    dof rx ry rz
    limits (-20.0 45.0)
           (-30.0 30.0)
           (-30.0 30.0)
  end
  begin
     id 16
     name head
     direction -0.00615349 0.999547 -0.029448  
     length 1.7462  
     axis 0 0 0   XYZ
    dof rx ry rz
    limits (-20.0 45.0)
           (-30.0 30.0)
           (-30.0 30.0)
  end
  begin
     id 17 
     name lclavicle
     direction 0.988267 0.149885 0.0293713  
     length 4.47222  
     axis 0 0 0   XYZ
    dof ry rz
    limits (-20.0 10.0)
           (0.0 20.0)
  end
  begin
     id 18 
     name lhumerus
     direction 1 -4.48986e-011 -1.14833e-027   
     length 5.37148   
     axis 180 -30 -90   XYZ
    dof rx ry rz
    limits (-60.0 90.0)
           (-90.0 90.0)
           (-90.0 90.0)
  end
  begin
     id 19
     name lradius
     direction 0.999998 0.00170963 -0.000987055   
     length 3.94212   
     axis 180 -30 -90   XYZ
    dof rx
    limits (-10.0 170.0)
  end
  begin
     id 20
     name lwrist
     direction 0.999998 7.53149e-005 -0.00194706   
     length 1.97106   
     axis 4.65056e-015 90 90   XYZ
    dof ry
    limits (-180.0 0.0)
 end
  begin
     id 21 
     name lhand
     direction 1 -4.48973e-011 -1.31746e-026   
     length 1.17917   
     axis 8.4065e-015 90 90   XYZ
    dof rx rz
    limits (-90.0 90.0)
           (-45.0 45.0)
  end
  begin
     id 22 
     name lfingers
     direction 1 -4.49107e-011 -2.63492e-026   
     length 0.950679   
     axis 1.6813e-014 90 90   XYZ
    dof rx
    limits (0.0 90.0)
  end
  begin
     id 23
     name lthumb
     direction 0.707107 -6.35048e-011 0.707107   
     length 1.36499   
     axis -90 45 2.85299e-015   XYZ
    dof rx rz
    limits (-45.0 45.0)
           (-45.0 45.0)
  end
  begin
     id 24 
     name rclavicle
     direction -0.996699 0.0642895 -0.0495725   
     length 4.62611  
     axis 0 0 0   XYZ 
    dof ry rz
    limits (-10.0 20.0)
           (-20.0 0.0)
  end
  begin
     id 25 
     name rhumerus
     direction -1 -4.48919e-011 -2.41059e-027  
     length 5.4981   
     axis 180 30 90   XYZ
    dof rx ry rz
    limits (-90.0 60.0)
           (-90.0 90.0)
           (-90.0 90.0)
  end
  begin
     id 26 
     name rradius
     direction -0.999999 0.00118101 -0.000681858   
     length 3.48381   
     axis 180 30 90   XYZ
    dof rx
    limits (-10.0 170.0)
  end
  begin
     id 27 
     name rwrist
     direction -0.999999 0.000321823 -0.00132288   
     length 1.7419   
     axis 4.65056e-015 -90 -90   XYZ
    dof ry
    limits (-180.0 0.0)
  end
  begin
     id 28
     name rhand
     direction -1 -4.49022e-011 -1.31746e-026   
     length 1.34932   
     axis 8.4065e-015 -90 -90   XYZ
    dof rx rz
    limits (-90.0 90.0)
           (-45.0 45.0)
  end
  begin
     id 29
     name rfingers
     direction -1 -4.49178e-011 -2.63492e-026   
     length 1.08785   
     axis 1.6813e-014 -90 -90   XYZ
    dof rx
    limits (0.0 90.0)
  end
  begin
     id 30
     name rthumb
     direction -0.707107 -6.34713e-011 0.707107   
     length 1.56195   
     axis -90 -45 -2.85299e-015   XYZ
    dof rx rz
    limits (-45.0 45.0)
           (-45.0 45.0)
  end
:hierarchy
  begin
    root lhipjoint rhipjoint lowerback
    lhipjoint lfemur
    lfemur ltibia
    ltibia lfoot
    lfoot ltoes
    rhipjoint rfemur
    rfemur rtibia
    rtibia rfoot
    rfoot rtoes
    lowerback upperback
    upperback thorax
    thorax lowerneck lclavicle rclavicle
    lowerneck upperneck
    upperneck head
    lclavicle lhumerus
    lhumerus lradius
    lradius lwrist
    lwrist lhand lthumb
    lhand lfingers
    rclavicle rhumerus
    rhumerus rradius
    rradius rwrist
    rwrist rhand rthumb
    rhand rfingers
  end

#!OML:ASF X:\für Bonn\!DataBase\2005_08_10_Bjorn_Final\c3d\bjorn.ASF
:FULLY-SPECIFIED
:DEGREES
16
root 1.65284 18.8554 2.5985 -178.184 0.958841 -179.674
lowerback 1.96782 1.90829 5.31133
upperback 5.86309 2.96173 -1.28261
thorax 5.3239 1.93654 -4.20774
lowerneck -19.355 -3.58041 0.332316
upperneck 7.86273 -4.89765 -0.403795
head 5.46141 -2.44087 -0.676207
rclavicle 1.25607e-014 1.15544e-015
rhumerus 71.3388 0.63961 -80.284
rradius 10.1316
rwrist 45.9906
rhand -8.84645 10.2525
rfingers 7.12502
rthumb 17.0942 -19.0155
lclavicle 1.25607e-014 1.15544e-015
lhumerus 76.2749 -12.7812 61.4952
lradius 11.2756
lwrist -35.8097
lhand -11.7638 -4.54422
lfingers 7.12502
lthumb 14.2846 24.9444
rfemur -15.4114 -11.2497 18.6497
rtibia 38.1659
rfoot -21.2256 16.933
rtoes -14.7922
lfemur -14.5739 3.30219 -17.4668
ltibia 38.1579
lfoot -20.2133 0.562322
ltoes -15.3616
17
root 1.6483 18.8061 2.63073 -178.284 1.01883 -179.793
lowerback 2.52215 1.88602 5.25397
upperback 5.9345 2.98668 -1.32635
thorax 5.08546 1.95386 -4.24182
lowerneck -19.283 -3.5602 0.318212
upperneck 7.60148 -4.88015 -0.348036
head 5.36889 -2.43365 -0.649666
rclavicle -3.25572e-014 1.13307e-014
rhumerus 71.5581 0.714094 -80.008
rradius 9.97121
rwrist 45.5133
rhand -9.13448 10.2909
rfingers 7.12502
rthumb 16.817 -19.0008
lclavicle -3.25572e-014 1.13307e-014
lhumerus 76.5425 -12.9476 60.9981
lradius 11.1218
lwrist -35.3119
lhand -12.1177 -4.58601
lfingers 7.12502
lthumb 13.9436 24.9264
rfemur -16.1775 -11.1259 18.5592
rtibia 39.5353
rfoot -21.444 16.7961
rtoes -14.4905
lfemur -15.159 3.24924 -17.6599
ltibia 39.2965
lfoot -20.5864 0.885934
ltoes -15.454
18
root 1.64346 18.7497 2.66442 -178.338 1.06784 -179.897
lowerback 3.0438 1.8533 5.20025
upperback 6.00787 2.99411 -1.35146
thorax 4.86544 1.9625 -4.25795
lowerneck -19.3053 -3.54094 0.253702
upperneck 7.37974 -4.85296 -0.291487
head 5.30504 -2.4232 -0.616558
rclavicle 2.76062e-014 3.95085e-015
rhumerus 71.8195 0.812492 -79.712
rradius 9.82698
rwrist 45.0315
rhand -9.433 10.3216
rfingers 7.12502
rthumb 16.5296 -18.9944
lclavicle 2.76062e-014 3.95085e-015
lhumerus 76.8096 -13.0433 60.6858
lradius 10.9515
lwrist -35.0473
lhand -12.5396 -4.62824
lfingers 7.12502
lthumb 13.5369 24.9117
rfemur -17.0695 -11.0178 18.5013
rtibia 41.0287
rfoot -21.7031 16.5983
rtoes -14.4786
lfemur -15.8884 3.18966 -17.8323
ltibia 40.5864
lfoot -20.9979 1.14753
ltoes -15.3569
19
root 1.63885 18.6881 2.69869 -178.391 1.12759 -180.017
lowerback 3.59713 1.83623 5.13719
upperback 6.06259 3.02329 -1.39088
thorax 4.61136 1.98038 -4.28571
lowerneck -19.3131 -3.53479 0.163533
upperneck 7.1748 -4.8418 -0.187246
head 5.24607 -2.41728 -0.565957
rclavicle -2.3792e-014 1.17283e-014
rhumerus 72.0511 0.874173 -79.4169
rradius 9.71786
rwrist 44.5885
rhand -9.73334 10.3419
rfingers 7.12502
rthumb 16.2404 -18.9979
lclavicle -2.3792e-014 1.17283e-014
lhumerus 77.0904 -13.1674 60.3464
lradius 10.8069
lwrist -34.7919
lhand -12.9201 -4.62445
lfingers 7.12502
lthumb 13.1702 24.9396
rfemur -18.0324 -10.9385 18.4215
rtibia 42.6369
rfoot -21.8708 16.4898
rtoes -14.1234
lfemur -16.6922 3.13567 -18.0293
ltibia 42.0109
lfoot -21.4645 1.49879
ltoes -15.6721
20
root 1.63301 18.6208 2.73392 -178.437 1.17693 -180.086
lowerback 4.14223 1.79885 5.12776
upperback 6.14686 3.02781 -1.40831
thorax 4.39304 1.99115 -4.3202
lowerneck -19.3863 -3.51373 0.0804144
upperneck 6.93463 -4.81363 -0.100258
head 5.18553 -2.40572 -0.521188
rclavicle -5.29264e-014 1.80397e-014
rhumerus 72.3225 0.941592 -79.1081
rradius 9.67541
rwrist 44.2957
rhand -9.9675 10.3839
rfingers 7.12502
rthumb 16.0149 -18.9742
lclavicle -5.29264e-014 1.80397e-014
lhumerus 77.3587 -13.1927 60.1211
lradius 10.7437
lwrist -34.6571
lhand -13.2243 -4.6445
lfingers 7.12502
lthumb 12.877 24.9382
rfemur -19.0673 -10.8618 18.3998
rtibia 44.3607
rfoot -22.0111 16.396
rtoes -13.7666
lfemur -17.5704 3.04878 -18.1678
ltibia 43.5583
lfoot -21.9446 1.78419
ltoes -15.6297
21
root 1.62736 18.5466 2.76939 -178.463 1.20692 -180.19
lowerback 4.68935 1.76172 5.07154
upperback 6.20478 3.02886 -1.42441
thorax 4.14317 1.99532 -4.32826
lowerneck -19.4577 -3.49616 0.00654973
upperneck 6.74679 -4.78537 -0.0610199
head 5.13981 -2.39634 -0.493576
rclavicle -7.41715e-015 -4.22417e-015
rhumerus 72.5774 1.02135 -78.7834
rradius 9.65388
rwrist 44.0656
rhand -10.2222 10.391
rfingers 7.12502
rthumb 15.7697 -18.9866
lclavicle -7.41715e-015 -4.22417e-015
lhumerus 77.4923 -13.1774 60.3133
lradius 10.7477
lwrist -34.9395
lhand -13.4872 -4.65912
lfingers 7.12502
lthumb 12.6235 24.9394
rfemur -20.1862 -10.8672 18.3413
rtibia 46.1973
rfoot -22.1895 16.2865
rtoes -13.5723
lfemur -18.5301 2.99999 -18.3471
ltibia 45.2038
lfoot -22.3943 2.06155
ltoes -15.8217
22
root 1.62301 18.4643 2.80506 -178.488 1.22823 -180.295
lowerback 5.22897 1.71617 5.0055
upperback 6.28639 3.0212 -1.44496
thorax 3.92196 1.99785 -4.33455
lowerneck -19.5722 -3.46604 -0.0983614
upperneck 6.52621 -4.74549 0.0684619
head 5.09341 -2.37666 -0.432046
rclavicle 2.75068e-014 -1.35174e-014
rhumerus 72.9155 1.07506 -78.4653
rradius 9.60833
rwrist 44.0287
rhand -10.4322 10.3532
rfingers 7.12502
rthumb 15.5674 -19.0403
lclavicle 2.75068e-014 -1.35174e-014
lhumerus 77.5326 -13.088 60.7527
lradius 10.9108
lwrist -35.4518
lhand -13.5996 -4.73195
lfingers 7.12502
lthumb 12.5152 24.8733
rfemur -21.3492 -10.8545 18.2885
rtibia 48.12
rfoot -22.4144 16.151
rtoes -13.6082
lfemur -19.5451 2.92885 -18.5178
ltibia 46.9408
lfoot -22.8548 2.26403
ltoes -15.7342
23
root 1.61849 18.3748 2.84036 -178.523 1.21963 -180.399
lowerback 5.79439 1.65542 4.94429
upperback 6.35558 2.99326 -1.45848
thorax 3.6716 1.98907 -4.33766
lowerneck -19.7089 -3.43144 -0.155607
upperneck 6.36115 -4.69793 0.0878751
head 5.06396 -2.35918 -0.413013
rclavicle 2.29099e-014 -2.08724e-015
rhumerus 73.2438 1.11816 -78.1311
rradius 9.55827
rwrist 44.145
rhand -10.6441 10.3819
rfingers 7.12502
rthumb 15.3633 -19.0273
lclavicle 2.29099e-014 -2.08724e-015
lhumerus 77.4164 -12.964 61.5213
lradius 11.194
lwrist -36.2415
lhand -13.5747 -4.74931
lfingers 7.12502
lthumb 12.5392 24.8544
rfemur -22.5526 -10.9208 18.2445
rtibia 50.1266
rfoot -22.7738 15.9335
rtoes -14.212
lfemur -20.6032 2.88965 -18.6841
ltibia 48.7583
lfoot -23.2485 2.4143
ltoes -15.7722
24
root 1.61403 18.2799 2.8762 -178.558 1.17299 -180.485
lowerback 6.36146 1.58815 4.91218
upperback 6.44493 2.96102 -1.47111
thorax 3.4437 1.98215 -4.35537
lowerneck -19.9134 -3.39769 -0.199721
upperneck 6.19786 -4.65776 0.114774
head 5.04528 -2.34517 -0.395732
rclavicle -4.34841e-015 -8.94531e-016
rhumerus 73.5755 1.11327 -77.7889
rradius 9.56106
rwrist 44.362
rhand -10.8392 10.3653
rfingers 7.12502
rthumb 15.1754 -19.0583
lclavicle -4.34841e-015 -8.94531e-016
lhumerus 77.3609 -12.8569 62.1072
lradius 11.5473
lwrist -36.8311
lhand -13.5473 -4.72905
lfingers 7.12502
lthumb 12.5656 24.8731
rfemur -23.7649 -10.9146 18.1637
rtibia 52.1776
rfoot -22.9198 16.0322
rtoes -13.4979
lfemur -21.7181 2.82711 -18.8309
ltibia 50.6587
lfoot -23.604 2.53397
ltoes -15.8768
25
root 1.61064 18.1784 2.91384 -178.575 1.11595 -180.572
lowerback 6.9425 1.50563 4.8499
upperback 6.51689 2.90479 -1.45494
thorax 3.1844 1.9591 -4.3263
lowerneck -20.1406 -3.37712 -0.355878
upperneck 6.05208 -4.61223 0.186178
head 5.03905 -2.3282 -0.346937
rclavicle -3.14577e-014 5.96354e-015
rhumerus 73.8985 1.16457 -77.4173
rradius 9.59633
rwrist 44.6112
rhand -10.9727 10.3224
rfingers 7.12502
rthumb 15.0468 -19.1108
lclavicle -3.14577e-014 5.96354e-015
lhumerus 77.2755 -12.7242 62.7062
lradius 11.8814
lwrist -37.3587
lhand -13.5175 -4.75287
lfingers 7.12502
lthumb 12.5943 24.8475
rfemur -25.0409 -10.9011 18.0671
rtibia 54.2801
rfoot -22.9455 16.2393
rtoes -12.2268
lfemur -22.9106 2.80327 -18.9664
ltibia 52.6323
lfoot -23.9287 2.54475
ltoes -15.8685
26
root 1.6069 18.0695 2.95479 -178.618 1.03019 -180.676
lowerback 7.57007 1.40774 4.8081
upperback 6.61627 2.83883 -1.47764
thorax 2.9317 1.93714 -4.3496
lowerneck -20.4253 -3.34899 -0.431924
upperneck 5.9194 -4.57714 0.250272
head 5.04356 -2.31517 -0.315213
rclavicle -3.14577e-014 1.55052e-014
rhumerus 74.2292 1.15336 -77.0858
rradius 9.68387
rwrist 44.8582
rhand -11.0923 10.2671
rfingers 7.12502
rthumb 14.9316 -19.1747
lclavicle -3.14577e-014 1.55052e-014
lhumerus 77.3194 -12.6286 62.994
lradius 12.1732
lwrist -37.6121
lhand -13.5539 -4.76247
lfingers 7.12502
lthumb 12.5592 24.84
rfemur -26.3057 -10.8927 17.929
rtibia 56.4128
rfoot -22.9754 16.5221
rtoes -11.0488
lfemur -24.1484 2.79722 -19.1295
ltibia 54.6908
lfoot -24.1757 2.62618
ltoes -16.3996
